<svg xmlns="http://www.w3.org/2000/svg" width="64" height="64" viewBox="0 0 64 64"><rect x="0.5" y="0.5" width="63" height="63" rx="17" fill="#19191C" stroke="#FFFFFF" stroke-opacity="0.08"/><g transform="translate(15 15) scale(1.4167)" fill="none" stroke="#EDEDEA" stroke-width="1.5" stroke-linecap="round" stroke-linejoin="round"><path d="M7 9V4.5h10V9"/><path d="M5.5 9h13a1.5 1.5 0 0 1 1.5 1.5v5a1.5 1.5 0 0 1-1.5 1.5H17"/><path d="M7 17H5.5A1.5 1.5 0 0 1 4 15.5v-5A1.5 1.5 0 0 1 5.5 9"/><path d="M7 13.5h10v6H7z"/><path d="M16.8 11.6h.01"/></g></svg>
